<svg xmlns="http://www.w3.org/2000/svg" enable-background="new 0 0 512 512" viewBox="0 0 512 512"><path fill="#3179af" d="M69 5c11.8 0 23.3 3.3 33.2 9.6L150 45v50H69c-24.9 0-45-20.1-45-45S44.1 5 69 5M231 5c-11.8 0-23.3 3.3-33.2 9.6L150 45v50h81c24.9 0 45-20.1 45-45S255.9 5 231 5"/><path fill="#cfe7f3" d="M276,507H34c-5.5,0-10-4.5-10-10V95h252V507L276,507z"/><polygon fill="#a5d2e9" fill-rule="evenodd" points="24 95 276 95 276 186 24 186 24 95" clip-rule="evenodd"/><path fill="#cfe7f3" d="M285,166H15c-5.5,0-10-4.5-10-10v-51c0-5.5,4.5-10,10-10h270c5.5,0,10,4.5,10,10v51C295,161.5,290.5,166,285,166"/><path fill="#a5d2e9" d="M276,121.2c-33.5,2.5-60,30.6-60,64.8v1.2l0,0.6c0.2,8.7,2,17,5.3,24.6c-14.6,2.4-25.3,14.1-25.3,28.5v51c0,12.3,8.1,23.5,19,28.4V497c0,3.5,0.6,6.8,1.8,10H276V121.2L276,121.2z"/><path fill="#a5d2e9" d="M295,156v-33.7c-4.7-0.8-9.4-1.3-14.2-1.3c-28.8,0-53.2,18.9-61.7,45H285C290.5,166,295,161.5,295,156"/><polygon fill="#3179af" fill-rule="evenodd" points="125 95 175 95 175 507 125 507 125 95" clip-rule="evenodd"/><path fill="#265e87" d="M78 95h47l-8-26.6L104 60.5C92.9 53.6 80.1 50 67 50c-9.4 0-17 7.6-17 17C50 82.5 62.5 95 78 95M222 95h-47l8-26.6 12.9-7.9c11.1-6.8 24-10.5 37-10.5 9.4 0 17 7.6 17 17C250 82.5 237.5 95 222 95"/><polygon fill="#265e87" fill-rule="evenodd" points="125 166 175 166 175 186 125 186 125 166" clip-rule="evenodd"/><path fill="#3179af" d="M478,507H246c-5.5,0-10-4.5-10-10V231h252v266C488,502.5,483.5,507,478,507"/><polygon fill="#265e87" fill-rule="evenodd" points="236 231 488 231 488 322 236 322 236 231" clip-rule="evenodd"/><path fill="#3179af" d="M497,302H227c-5.5,0-10-4.5-10-10v-51c0-5.5,4.5-10,10-10h270c5.5,0,10,4.5,10,10v51C507,297.5,502.5,302,497,302"/><polygon fill="#1f3e75" fill-rule="evenodd" points="337 231 387 231 387 507 337 507 337 231" clip-rule="evenodd"/><path fill="#1f3e75" d="M281 141c11.8 0 23.3 3.3 33.2 9.6L362 181v50h-81c-24.9 0-45-20.1-45-45S256.1 141 281 141M443 141c-11.8 0-23.3 3.3-33.2 9.6L362 181v50h81c24.9 0 45-20.1 45-45S467.9 141 443 141"/><polygon fill="#14294d" fill-rule="evenodd" points="337 302 387 302 387 322 337 322 337 302" clip-rule="evenodd"/><path fill="#4893cc" d="M150,45c-19.3,0-35,15.7-35,35v15h70V80C185,60.7,169.3,45,150,45"/><path fill="#14294d" d="M290 231h47l-8-26.6-12.9-7.9c-11.1-6.8-24-10.5-37-10.5-9.4 0-17 7.6-17 17C262 218.5 274.5 231 290 231M434 231h-47l8-26.6 12.9-7.9c11.1-6.8 24-10.5 37-10.5 9.4 0 17 7.6 17 17C462 218.5 449.5 231 434 231"/><path fill="#2a539d" d="M362,181c-19.3,0-35,15.7-35,35v15h70v-15C397,196.7,381.3,181,362,181"/></svg>