<svg xmlns="http://www.w3.org/2000/svg" id="Layer_1" x="0" y="0" version="1.1" viewBox="0 0 64 64" xml:space="preserve"><path fill="#fae414" d="M15.5 27.5h-8v-8h49v8h-8M53.5 27.5v32h-43v-32"/><path fill="#ed491f" d="M28.5 27.5h7v32h-7zM25.5 19.5h13v8h-13zM39.5 4.5A7.5 7.5 0 0032 12v2.5a5 5 0 115 5h2.5a7.5 7.5 0 000-15zM24.5 4.5a7.5 7.5 0 000 15H27a5 5 0 115-5V12a7.5 7.5 0 00-7.5-7.5z"/><path fill="none" stroke="#000" stroke-miterlimit="10" d="M41.5 27.5h-19"/><path fill="#ed491f" d="M34 19.5h1.5a6 6 0 016 6v11L45 34l3.5 2.5v-11a6 6 0 00-6-6H41M30 19.5h-1.5a6 6 0 00-6 6v6L19 29l-3.5 2.5v-6a6 6 0 016-6H23"/><path fill="none" stroke="#000" stroke-miterlimit="10" d="M32 19.5h-7.5a7.5 7.5 0 0 1 0-15A7.5 7.5 0 0 1 32 12v7.5z"/><path fill="none" stroke="#000" stroke-miterlimit="10" d="M32 19.5h-5a5 5 0 010-10 5 5 0 015 5v5zM32 19.5h5a5 5 0 000-10 5 5 0 00-5 5v5zM30 19.5h-1.5a6 6 0 00-6 6v6L19 29l-3.5 2.5v-6a6 6 0 016-6H23M34 19.5h1.5a6 6 0 016 6v11L45 34l3.5 2.5v-11a6 6 0 00-6-6H41"/><path fill="none" stroke="#000" stroke-miterlimit="10" d="M39.5 19.5H32V12a7.5 7.5 0 0115 0 7.5 7.5 0 01-7.5 7.5zM53.5 27.5v32h-43v-32M41.5 27.5h-19M15.5 27.5h-8v-8h49v8h-8"/><path fill="none" stroke="#000" stroke-miterlimit="10" d="M28.5 27.5h7v32h-7zM25.5 19.5h13v8h-13zM14 56.5h-1M16 56.5h-1M18 56.5h-1"/></svg>