<svg width="40" height="40" viewBox="0 0 40 40" fill="none" xmlns="http://www.w3.org/2000/svg">
<circle cx="20" cy="20" r="20" fill="#1265BF"/>
<path d="M13.1365 13.246C14.5883 13.246 15.7652 12.0676 15.7652 10.614C15.7652 9.16034 14.5883 7.98193 13.1365 7.98193C11.6847 7.98193 10.5078 9.16034 10.5078 10.614C10.5078 12.0676 11.6847 13.246 13.1365 13.246Z" fill="white"/>
<path d="M18.1726 15.1912H22.5292V17.1895C22.5292 17.1895 23.7114 14.8221 26.9281 14.8221C29.7975 14.8221 32.1745 16.2374 32.1745 20.5515V29.6486H27.6598V21.6538C27.6598 19.1089 26.3029 18.829 25.2689 18.829C23.123 18.829 22.7556 20.6823 22.7556 21.9858V29.6486H18.1726V15.1912Z" fill="white"/>
<path d="M10.845 15.1912H15.428V29.6486H10.845V15.1912Z" fill="white"/>
</svg>
