<svg width="40" height="40" viewBox="0 0 40 40" fill="none" xmlns="http://www.w3.org/2000/svg">
<circle cx="20" cy="20" r="20" fill="white"/>
<path d="M21.8147 19.9997C21.8147 24.6021 18.2371 28.3332 13.8237 28.3332C9.41036 28.3332 5.83301 24.6032 5.83301 19.9997C5.83301 15.3962 9.41063 11.6665 13.8237 11.6665C18.2368 11.6665 21.8147 15.3973 21.8147 19.9997ZM30.5809 19.9997C30.5809 24.3322 28.7919 27.8442 26.5854 27.8442C24.3788 27.8442 22.5899 24.3311 22.5899 19.9997C22.5899 15.6683 24.3788 12.1552 26.5854 12.1552C28.7919 12.1552 30.5809 15.6683 30.5809 19.9997ZM34.1663 19.9997C34.1663 23.8815 33.5371 27.028 32.7611 27.028C31.985 27.028 31.3558 23.8803 31.3558 19.9997C31.3558 16.1191 31.985 12.9714 32.7613 12.9714C33.5376 12.9714 34.1663 16.1182 34.1663 19.9997Z" fill="#12100E"/>
</svg>
