<svg width="16" height="16" viewBox="0 0 16 16" fill="none" xmlns="http://www.w3.org/2000/svg">
<circle cx="8" cy="8" r="8" fill="white"/>
<path d="M3.192 6.876C2.88 6.876 2.628 6.98 2.44 7.188C2.252 7.392 2.16 7.652 2.16 7.968C2.16 8.28 2.252 8.54 2.436 8.74C2.628 8.948 2.88 9.056 3.192 9.056C3.504 9.056 3.756 8.948 3.948 8.74C4.132 8.54 4.224 8.28 4.224 7.968C4.224 7.652 4.128 7.392 3.944 7.188C3.756 6.98 3.504 6.876 3.192 6.876ZM3.192 7.224C3.388 7.224 3.54 7.3 3.652 7.456C3.748 7.588 3.796 7.76 3.796 7.968C3.796 8.172 3.748 8.34 3.652 8.476C3.54 8.628 3.388 8.708 3.192 8.708C2.996 8.708 2.844 8.628 2.736 8.476C2.64 8.344 2.596 8.176 2.596 7.968C2.596 7.76 2.64 7.588 2.736 7.456C2.844 7.3 2.996 7.224 3.192 7.224ZM5.44272 6.144C5.25872 6.144 5.12272 6.192 5.02672 6.296C4.93072 6.392 4.88272 6.532 4.88272 6.708V6.932H4.40672V7.28H4.88272V9H5.30272V7.28H6.13872V9H6.56272V7.28H7.40672V9H7.83072V6.932H6.56272V6.72C6.56272 6.644 6.57872 6.588 6.61072 6.556C6.64272 6.52 6.69472 6.504 6.75872 6.504H7.13072V6.144H6.70272C6.51872 6.144 6.37872 6.192 6.28272 6.296C6.18672 6.392 6.13872 6.532 6.13872 6.708V6.932H5.30272V6.72C5.30272 6.644 5.31872 6.588 5.35072 6.556C5.38272 6.52 5.43472 6.504 5.50272 6.504H5.87472V6.144H5.44272ZM9.27328 6.876C8.95328 6.876 8.70528 6.984 8.52528 7.2C8.35728 7.4 8.27328 7.656 8.27328 7.968C8.27328 8.288 8.35728 8.544 8.52928 8.744C8.70528 8.952 8.94928 9.056 9.26528 9.056C9.52928 9.056 9.74528 8.988 9.90528 8.856C10.0653 8.72 10.1733 8.512 10.2213 8.236H9.80128C9.76128 8.548 9.58528 8.708 9.26928 8.708C9.08528 8.708 8.94928 8.64 8.85728 8.512C8.75728 8.38 8.70928 8.196 8.70928 7.964C8.70928 7.732 8.75728 7.548 8.86128 7.42C8.96128 7.288 9.09728 7.224 9.27328 7.224C9.41728 7.224 9.53328 7.256 9.62128 7.324C9.70928 7.388 9.76528 7.492 9.79328 7.632H10.2133C10.1733 7.376 10.0693 7.184 9.90928 7.056C9.74928 6.936 9.53728 6.876 9.27328 6.876ZM10.8838 6.104C10.7998 6.104 10.7318 6.128 10.6758 6.184C10.6198 6.236 10.5918 6.304 10.5918 6.388C10.5918 6.468 10.6198 6.54 10.6758 6.596C10.7318 6.648 10.7998 6.676 10.8838 6.676C10.9638 6.676 11.0358 6.648 11.0918 6.596C11.1478 6.54 11.1798 6.472 11.1798 6.388C11.1798 6.304 11.1518 6.236 11.0958 6.184C11.0398 6.128 10.9678 6.104 10.8838 6.104ZM10.6718 6.932V9H11.0958V6.932H10.6718ZM12.6017 6.876C12.3457 6.876 12.1377 6.92 11.9857 7.016C11.8097 7.12 11.6977 7.288 11.6537 7.512L12.0737 7.548C12.0977 7.432 12.1577 7.348 12.2537 7.292C12.3337 7.244 12.4417 7.22 12.5737 7.22C12.8857 7.22 13.0417 7.364 13.0417 7.652V7.736L12.5777 7.748C12.2737 7.756 12.0337 7.816 11.8657 7.936C11.6817 8.06 11.5897 8.24 11.5897 8.472C11.5897 8.644 11.6537 8.784 11.7857 8.892C11.9057 9 12.0737 9.056 12.2897 9.056C12.4737 9.056 12.6337 9.02 12.7697 8.956C12.8897 8.896 12.9897 8.812 13.0697 8.708V9H13.4617V7.68C13.4617 7.428 13.3977 7.236 13.2737 7.104C13.1297 6.952 12.9057 6.876 12.6017 6.876ZM13.0417 8.044V8.164C13.0417 8.324 12.9737 8.46 12.8457 8.568C12.7177 8.676 12.5657 8.732 12.3857 8.732C12.2777 8.732 12.1897 8.704 12.1257 8.652C12.0577 8.6 12.0257 8.536 12.0257 8.456C12.0257 8.2 12.2177 8.064 12.6057 8.056L13.0417 8.044ZM13.995 6.088V9H14.419V6.088H13.995Z" fill="#1E96C8"/>
</svg>
