<svg xmlns="http://www.w3.org/2000/svg" enable-background="new 0 0 512 512" viewBox="0 0 512 512"><path fill="#efefef" d="M461.456,83.707v398.323c0,12.179-9.873,22.052-22.052,22.052H72.585c-12.179,0-22.052-9.873-22.052-22.052V83.707H461.456z"/><path d="M461.481,83.715v398.305c0,12.193-9.923,22.063-22.063,22.063h-32.145c12.193,0,22.063-9.871,22.063-22.063V83.715H461.481z" opacity=".15"/><path fill="#a5e0fa" d="M461.449,83.716V29.969c0-12.179-9.873-22.052-22.052-22.052H72.578c-12.179,0-22.052,9.873-22.052,22.052v53.747H461.449z"/><path fill="#fff" d="M99.756,7.918c-12.193,0-22.063,9.87-22.063,22.063v53.734H50.509V29.981c0-12.193,9.87-22.063,22.063-22.063H99.756z" opacity=".5"/><path d="M461.428,29.981v53.734h-26.023V29.981c0-12.193-9.923-22.063-22.063-22.063h26.075C451.558,7.918,461.428,17.788,461.428,29.981z" opacity=".15"/><path fill="#fb888b" d="M290.515,141.196h68.988v16.046c0,19.055-15.466,34.521-34.52,34.521c-9.501,0-18.105-3.854-24.333-10.135c-6.281-6.228-10.134-14.832-10.134-24.385V141.196z"/><polygon fill="#fb888b" points="497.532 141.143 428.491 141.143 402.733 83.715 461.428 83.715"/><path fill="#fb888b" d="M428.544,141.196h68.988v16.046c0,19.055-15.466,34.521-34.52,34.521c-9.501,0-18.158-3.854-24.386-10.135c-6.228-6.228-10.082-14.832-10.082-24.385V141.196z"/><polygon fill="#fb888b" points="344.038 83.715 359.503 141.143 290.515 141.143 285.342 83.715"/><polygon fill="#fb888b" points="50.562 83.715 109.257 83.715 83.498 141.143 14.457 141.143"/><polygon fill="#fb888b" points="167.952 83.715 226.647 83.715 221.475 141.143 152.486 141.143"/><path fill="#fb888b" d="M152.486 141.196h68.988v16.046c0 19.055-15.413 34.521-34.468 34.521-9.554 0-18.158-3.854-24.386-10.135-6.281-6.228-10.134-14.832-10.134-24.385V141.196zM14.457 141.196h69.041v16.046c0 19.055-15.466 34.521-34.52 34.521-9.501 0-18.158-3.854-24.386-10.135-6.281-6.228-10.135-14.832-10.135-24.385V141.196z"/><path fill="#fff" d="M333.059,190.813c-2.587,0.633-5.278,0.95-8.076,0.95c-9.501,0-18.105-3.854-24.333-10.135c-6.281-6.228-10.134-14.832-10.134-24.385v-16.046h16.046v16.046c0,9.553,3.853,18.157,10.134,24.385C321.13,186.115,326.725,189.334,333.059,190.813z" opacity=".5"/><polygon fill="#fff" points="444.538 141.143 428.491 141.143 402.733 83.715 418.779 83.715" opacity=".5"/><path fill="#fff" d="M471.035,190.813c-2.586,0.633-5.278,0.95-8.023,0.95c-9.501,0-18.158-3.854-24.386-10.135c-6.228-6.228-10.082-14.832-10.082-24.385v-16.046h16.046v16.046c0,9.553,3.853,18.157,10.082,24.385C459.106,186.062,464.754,189.334,471.035,190.813z" opacity=".5"/><polygon fill="#fff" points="306.562 141.143 290.515 141.143 285.342 83.715 301.389 83.715" opacity=".5"/><polygon fill="#fff" points="66.608 83.715 30.504 141.143 14.457 141.143 50.562 83.715" opacity=".5"/><polygon fill="#fff" points="183.998 83.715 168.533 141.143 152.486 141.143 167.952 83.715" opacity=".5"/><path fill="#fff" d="M195.03 190.813c-2.586.633-5.278.95-8.023.95-9.554 0-18.158-3.854-24.386-10.135-6.281-6.228-10.134-14.832-10.134-24.385v-16.046h16.046v16.046c0 9.553 3.853 18.157 10.135 24.385C183.101 186.115 188.696 189.334 195.03 190.813zM57.001 190.813c-2.586.633-5.278.95-8.023.95-9.501 0-18.158-3.854-24.386-10.135-6.281-6.228-10.135-14.832-10.135-24.385v-16.046h16.046v16.046c0 9.553 3.853 18.157 10.134 24.385C45.072 186.062 50.72 189.334 57.001 190.813z" opacity=".5"/><path d="M359.503,141.196v16.046c0,19.055-15.466,34.521-34.52,34.521c-2.956,0-5.806-0.37-8.551-1.109c14.885-3.853,25.864-17.365,25.864-33.412v-16.046H359.503z" opacity=".15"/><polygon points="497.532 141.143 480.325 141.143 444.221 83.715 461.428 83.715" opacity=".15"/><path d="M497.532,141.196v16.046c0,19.055-15.466,34.521-34.52,34.521c-2.956,0-5.859-0.37-8.604-1.109c14.885-3.8,25.917-17.313,25.917-33.412v-16.046H497.532z" opacity=".15"/><polygon points="359.503 141.143 342.296 141.143 326.831 83.715 344.038 83.715" opacity=".15"/><polygon points="109.257 83.715 83.498 141.143 66.291 141.143 92.049 83.715" opacity=".15"/><polygon points="226.647 83.715 221.475 141.143 204.267 141.143 209.44 83.715" opacity=".15"/><path d="M221.475 141.196v16.046c0 19.055-15.413 34.521-34.468 34.521-2.956 0-5.859-.37-8.604-1.109 14.885-3.8 25.864-17.313 25.864-33.412v-16.046H221.475zM83.498 141.196v16.046c0 19.055-15.466 34.521-34.52 34.521-2.956 0-5.859-.37-8.604-1.109 14.885-3.8 25.917-17.313 25.917-33.412v-16.046H83.498z" opacity=".15"/><polygon fill="#fddc8d" points="285.342 83.715 290.515 141.143 221.475 141.143 226.647 83.715"/><path fill="#fddc8d" d="M221.475 141.196h69.041v16.046c0 19.055-15.466 34.521-34.521 34.521-9.501 0-18.158-3.854-24.386-10.135-6.281-6.228-10.134-14.832-10.134-24.385V141.196zM359.503 141.196h68.988v16.046c0 19.055-15.413 34.521-34.467 34.521-9.554 0-18.158-3.854-24.386-10.135-6.281-6.228-10.135-14.832-10.135-24.385V141.196zM83.498 141.196h68.988v16.046c0 19.055-15.466 34.521-34.52 34.521-9.554 0-18.158-3.854-24.386-10.135-6.229-6.228-10.082-14.832-10.082-24.385V141.196z"/><polygon fill="#fddc8d" points="109.257 83.715 167.952 83.715 152.486 141.143 83.498 141.143"/><polygon fill="#fddc8d" points="359.503 141.143 344.038 83.715 402.733 83.715 428.491 141.143"/><polygon fill="#fff" points="239.579 83.715 234.407 141.143 221.475 141.143 226.647 83.715" opacity=".5"/><path fill="#fff" d="M262.487 191.129c-2.111.423-4.275.634-6.493.634-9.501 0-18.158-3.854-24.386-10.135-6.281-6.228-10.134-14.832-10.134-24.385v-16.046h12.932v16.046c0 9.553 3.853 18.157 10.134 24.385C249.344 186.485 255.573 189.862 262.487 191.129zM400.516 191.129c-2.111.423-4.275.634-6.492.634-9.554 0-18.158-3.854-24.386-10.135-6.281-6.228-10.135-14.832-10.135-24.385v-16.046h12.932v16.046c0 9.553 3.853 18.157 10.135 24.385C387.373 186.485 393.549 189.862 400.516 191.129zM124.458 191.129c-2.111.423-4.275.634-6.492.634-9.554 0-18.158-3.854-24.386-10.135-6.229-6.228-10.082-14.832-10.082-24.385v-16.046H96.43v16.046c0 9.553 3.853 18.157 10.082 24.385C111.315 186.485 117.491 189.862 124.458 191.129z" opacity=".5"/><polygon fill="#fff" points="122.189 83.715 96.43 141.143 83.498 141.143 109.257 83.715" opacity=".5"/><polygon fill="#fff" points="372.435 141.143 359.503 141.143 344.038 83.715 356.97 83.715" opacity=".5"/><polygon points="290.515 141.143 267.713 141.143 262.54 83.715 285.342 83.715" opacity=".15"/><path d="M290.515 141.196v16.046c0 19.055-15.466 34.521-34.521 34.521-4.012 0-7.812-.687-11.401-1.954 13.46-4.697 23.119-17.524 23.119-32.567v-16.046H290.515zM428.491 141.196v16.046c0 19.055-15.413 34.521-34.467 34.521-4.012 0-7.812-.687-11.401-1.954 13.407-4.697 23.066-17.524 23.066-32.567v-16.046H428.491zM152.486 141.196v16.046c0 19.055-15.466 34.521-34.52 34.521-4.012 0-7.812-.687-11.401-1.954 13.46-4.697 23.119-17.524 23.119-32.567v-16.046H152.486z" opacity=".15"/><polygon points="167.952 83.715 152.486 141.143 129.684 141.143 145.149 83.715" opacity=".15"/><polygon points="428.491 141.143 405.689 141.143 379.931 83.715 402.733 83.715" opacity=".15"/><path fill="#fff" d="M104.279 45.79c0 5.732-4.631 10.364-10.309 10.364-5.734 0-10.364-4.631-10.364-10.364 0-5.678 4.631-10.31 10.364-10.31C99.648 35.48 104.279 40.111 104.279 45.79zM145.626 45.79c0 5.732-4.631 10.364-10.309 10.364-5.734 0-10.364-4.631-10.364-10.364 0-5.678 4.631-10.31 10.364-10.31C140.995 35.48 145.626 40.111 145.626 45.79zM186.973 45.79c0 5.732-4.631 10.364-10.309 10.364-5.734 0-10.364-4.631-10.364-10.364 0-5.678 4.631-10.31 10.364-10.31C182.342 35.48 186.973 40.111 186.973 45.79z"/><path fill="#7bdd9d" d="M358.562,302.684l-20.063,69.35c-1.364,4.716-5.682,7.962-10.592,7.962H208.345l-29.527-91.401H347.97C355.311,288.594,360.602,295.633,358.562,302.684z"/><polygon fill="#fff" points="229.92 379.988 208.332 379.988 178.825 288.62 200.414 288.62" opacity=".5"/><path d="M358.553,302.661l-20.058,69.357c-1.372,4.751-5.701,7.97-10.61,7.97h-19.108c4.909,0,9.184-3.22,10.557-7.97l20.058-69.357c2.059-7.021-3.22-14.041-10.557-14.041h19.16C355.333,288.62,360.612,295.64,358.553,302.661z" opacity=".15"/><circle cx="223.858" cy="427.944" r="21.101" fill="#a7b1b3"/><circle cx="328.38" cy="427.944" r="21.101" fill="#a7b1b3"/><path d="M502.792,141.11c-0.009-1.006-0.464-2.23-0.797-2.759l-35.268-56.162V29.969c0-15.07-12.26-27.33-27.33-27.33H72.577c-15.07,0-27.33,12.26-27.33,27.33v52.244L9.995,138.351c-0.333,0.528-0.791,1.769-0.793,2.793c0,0.01-0.005,0.017-0.005,0.027v16.07c0,20.678,15.865,37.706,36.059,39.59v285.201c0,15.07,12.26,27.33,27.33,27.33h366.82c15.07,0,27.33-12.26,27.33-27.33V196.83c20.199-1.879,36.07-18.909,36.07-39.59C502.803,155.59,502.808,163.214,502.792,141.11z M423.237,146.448v10.791c0,16.113-13.108,29.222-29.219,29.222c-16.113,0-29.222-13.108-29.222-29.222v-10.791H423.237z M354.229,146.448v10.791c0,16.113-13.108,29.222-29.222,29.222c-16.111,0-29.219-13.108-29.219-29.222v-10.791H354.229z M285.222,146.448v10.791c0,16.113-13.108,29.222-29.222,29.222s-29.222-13.108-29.222-29.222v-10.791H285.222z M216.211,146.448v10.791c0,16.113-13.108,29.222-29.219,29.222c-16.113,0-29.222-13.108-29.222-29.222v-10.791H216.211z M147.204,146.448v10.791c0,16.113-13.108,29.222-29.222,29.222c-16.111,0-29.219-13.108-29.219-29.222v-10.791H147.204z M291.12,88.995h48.883l12.617,46.884h-57.294L291.12,88.995z M350.937,88.995h48.397l21.029,46.884h-56.808L350.937,88.995z M284.726,135.879h-57.463l4.206-46.884h49.05L284.726,135.879z M216.663,135.879H159.37l12.617-46.884h48.883L216.663,135.879z M112.656,88.995h48.397l-12.618,46.884H91.627L112.656,88.995z M431.934,135.879l-21.028-46.884h47.632l29.442,46.884H431.934z M72.577,13.196h366.82c9.25,0,16.773,7.523,16.773,16.773v48.459c-88.737,0-309.414,0-400.366,0V29.969C55.804,20.719,63.327,13.196,72.577,13.196z M53.452,88.995h47.632l-21.028,46.884H24.01L53.452,88.995z M19.753,157.24v-10.791h58.443v10.791c0,16.113-13.108,29.222-29.222,29.222S19.753,173.353,19.753,157.24z M439.405,498.804H72.585c-9.25,0-16.773-7.523-16.773-16.773V196.387c11.842-2.064,21.889-9.363,27.667-19.438c6.864,11.969,19.744,20.068,34.503,20.068s27.64-8.099,34.505-20.07c6.865,11.97,19.746,20.07,34.505,20.07c14.759,0,27.639-8.099,34.503-20.068c6.865,11.969,19.745,20.068,34.505,20.068s27.64-8.099,34.505-20.068c6.864,11.969,19.744,20.068,34.503,20.068c14.759,0,27.64-8.099,34.505-20.07c6.865,11.97,19.746,20.07,34.505,20.07s27.639-8.099,34.503-20.068c5.777,10.072,15.819,17.369,27.657,19.436v285.646C456.178,491.281,448.655,498.804,439.405,498.804z M492.247,157.24c0,16.113-13.108,29.222-29.222,29.222c-16.113,0-29.222-13.108-29.222-29.222v-10.791h58.443V157.24z"/><path d="M93.969 61.433c8.595 0 15.588-7.018 15.588-15.644 0-8.595-6.992-15.588-15.588-15.588-8.624 0-15.642 6.992-15.642 15.588C78.327 54.415 85.345 61.433 93.969 61.433zM93.969 40.758c2.773 0 5.031 2.258 5.031 5.031 0 2.804-2.258 5.088-5.031 5.088-2.804 0-5.085-2.284-5.085-5.088C88.884 43.015 91.165 40.758 93.969 40.758zM135.317 61.433c8.595 0 15.588-7.018 15.588-15.644 0-8.595-6.992-15.588-15.588-15.588-8.626 0-15.644 6.992-15.644 15.588C119.673 54.415 126.691 61.433 135.317 61.433zM135.317 40.758c2.773 0 5.031 2.258 5.031 5.031 0 2.804-2.258 5.088-5.031 5.088-2.804 0-5.088-2.284-5.088-5.088C130.229 43.015 132.513 40.758 135.317 40.758zM176.662 61.433c8.595 0 15.588-7.018 15.588-15.644 0-8.595-6.992-15.588-15.588-15.588-8.624 0-15.642 6.992-15.642 15.588C161.021 54.415 168.039 61.433 176.662 61.433zM176.662 40.758c2.773 0 5.031 2.258 5.031 5.031 0 2.804-2.258 5.088-5.031 5.088-2.804 0-5.085-2.284-5.085-5.088C171.577 43.015 173.858 40.758 176.662 40.758zM283.168 51.095h145.204c2.915 0 5.278-2.363 5.278-5.278 0-2.915-2.363-5.278-5.278-5.278H283.168c-2.915 0-5.278 2.363-5.278 5.278C277.889 48.732 280.253 51.095 283.168 51.095zM347.969 283.317h-165.31l-3.025-9.361c-4.296-13.289-14.956-23.222-28.515-26.57l-23.289-5.753c-2.825-.706-5.691 1.026-6.389 3.858-.698 2.83 1.028 5.691 3.858 6.389l23.289 5.753c9.987 2.466 17.838 9.783 21 19.57 38.54 119.29 33.595 103.939 41.337 127.89-7.985 4.539-13.446 13.025-13.446 22.849 0 14.546 11.832 26.379 26.379 26.379 12.739 0 23.393-9.075 25.845-21.101h52.83c2.452 12.026 13.106 21.101 25.845 21.101 14.546 0 26.379-11.832 26.379-26.379s-11.832-26.379-26.379-26.379c-12.739 0-23.393 9.075-25.845 21.101h-52.83c-2.546-12.486-14.135-22.416-28.731-20.809l-5.36-16.582h112.294c7.214 0 13.655-4.84 15.662-11.773l20.062-69.351C366.649 293.722 358.838 283.317 347.969 283.317zM328.379 412.121c8.724 0 15.822 7.098 15.822 15.822s-7.098 15.822-15.822 15.822c-8.724 0-15.822-7.098-15.822-15.822S319.655 412.121 328.379 412.121zM239.68 427.943c0 8.724-7.098 15.822-15.822 15.822s-15.822-7.098-15.822-15.822 7.098-15.822 15.822-15.822S239.68 419.219 239.68 427.943zM353.492 301.216l-20.062 69.348c-.709 2.446-2.979 4.152-5.523 4.152H212.201l-26.13-80.843h161.898C351.798 293.874 354.554 297.534 353.492 301.216z"/></svg>