<svg xmlns="http://www.w3.org/2000/svg" enable-background="new 0 0 50 50" viewBox="0 0 50 50"><path fill="#59B1E3" d="M44.7876,15.9211v31.08c0,1.1-0.8899,2-2,2H21.6377c-1.1001,0-2-0.9-2-2v-31.08c0-1.1,0.8999-2,2-2
			h21.1499C43.8977,13.9211,44.7876,14.8211,44.7876,15.9211z"/><rect width="4.3" height="35.076" x="35.941" y="13.923" fill="#444445"/><path fill="#696967" d="M32.2124,2.9989v39c0,1.1-0.8999,2-2,2h-23c-1.0999,0-2-0.9-2-2v-39c0-1.11,0.9001-2,2-2h23
			C31.3125,0.9989,32.2124,1.8889,32.2124,2.9989z"/><rect width="22" height="11.669" x="7.712" y="4.254" fill="#FFF"/><path fill="#444445" d="M28.9724,43.1689v0.83h-20.52v-0.83c0-0.5523,0.4477-1,1-1h18.52
			C28.5247,42.1689,28.9724,42.6166,28.9724,43.1689z"/><path fill="#C7C7C7" d="M17.9043 19.8262v1.3526c0 .3763-.3135.6987-.6986.6987h-2.8665c-.3763 0-.6987-.3225-.6987-.6987v-1.3526c0-.3852.3225-.6987.6987-.6987h2.8665C17.5908 19.1275 17.9043 19.4409 17.9043 19.8262zM17.9043 24.0562v1.3526c0 .3852-.3135.6987-.6986.6987h-2.8665c-.3763 0-.6987-.3135-.6987-.6987v-1.3526c0-.3852.3225-.6987.6987-.6987h2.8665C17.5908 23.3574 17.9043 23.671 17.9043 24.0562zM17.9043 28.2861v1.3526c0 .3852-.3135.6987-.6986.6987h-2.8665c-.3763 0-.6987-.3136-.6987-.6987v-1.3526c0-.3852.3225-.6987.6987-.6987h2.8665C17.5908 27.5875 17.9043 27.901 17.9043 28.2861zM17.9035 32.517v1.361c0 .3761-.3134.6895-.6983.6895h-2.8654c-.3761 0-.6985-.3134-.6985-.6895v-1.361c0-.3761.3223-.6895.6985-.6895h2.8654C17.5902 31.8275 17.9035 32.1408 17.9035 32.517zM17.9043 36.7562v1.3526c0 .3852-.3135.6987-.6986.6987h-2.8665c-.3763 0-.6987-.3135-.6987-.6987v-1.3526c0-.3852.3225-.6987.6987-.6987h2.8665C17.5908 36.0574 17.9043 36.371 17.9043 36.7562zM23.7749 19.8262v1.3526c0 .3763-.3135.6987-.6898.6987h-2.8664c-.3851 0-.6987-.3225-.6987-.6987v-1.3526c0-.3852.3136-.6987.6987-.6987h2.8664C23.4614 19.1275 23.7749 19.4409 23.7749 19.8262zM12.0335 32.517v1.361c0 .3761-.3134.6895-.6985.6895H8.4698c-.385 0-.6985-.3134-.6985-.6895v-1.361c0-.3761.3135-.6895.6985-.6895h2.8653C11.7202 31.8275 12.0335 32.1408 12.0335 32.517zM23.7749 24.0562v1.3526c0 .3852-.3135.6987-.6898.6987h-2.8664c-.3851 0-.6987-.3135-.6987-.6987v-1.3526c0-.3852.3136-.6987.6987-.6987h2.8664C23.4614 23.3574 23.7749 23.671 23.7749 24.0562zM23.7749 28.2861v1.3526c0 .3852-.3135.6987-.6898.6987h-2.8664c-.3851 0-.6987-.3136-.6987-.6987v-1.3526c0-.3852.3136-.6987.6987-.6987h2.8664C23.4614 27.5875 23.7749 27.901 23.7749 28.2861zM23.774 32.517v1.361c0 .3761-.3134.6895-.6895.6895h-2.8653c-.385 0-.6985-.3134-.6985-.6895v-1.361c0-.3761.3135-.6895.6985-.6895h2.8653C23.4607 31.8275 23.774 32.1408 23.774 32.517zM23.7749 36.7562v1.3526c0 .3852-.3135.6987-.6898.6987h-2.8664c-.3851 0-.6987-.3135-.6987-.6987v-1.3526c0-.3852.3136-.6987.6987-.6987h2.8664C23.4614 36.0574 23.7749 36.371 23.7749 36.7562zM12.0343 36.7562v1.3526c0 .3852-.3135.6987-.6987.6987H8.4692c-.3851 0-.6987-.3135-.6987-.6987v-1.3526c0-.3852.3136-.6987.6987-.6987h2.8664C11.7209 36.0574 12.0343 36.371 12.0343 36.7562zM12.0343 19.8262v1.3526c0 .3763-.3135.6987-.6987.6987H8.4692c-.3851 0-.6987-.3225-.6987-.6987v-1.3526c0-.3852.3136-.6987.6987-.6987h2.8664C11.7209 19.1275 12.0343 19.4409 12.0343 19.8262zM12.0343 24.0562v1.3526c0 .3852-.3135.6987-.6987.6987H8.4692c-.3851 0-.6987-.3135-.6987-.6987v-1.3526c0-.3852.3136-.6987.6987-.6987h2.8664C11.7209 23.3574 12.0343 23.671 12.0343 24.0562zM12.0343 28.2861v1.3526c0 .3852-.3135.6987-.6987.6987H8.4692c-.3851 0-.6987-.3136-.6987-.6987v-1.3526c0-.3852.3136-.6987.6987-.6987h2.8664C11.7209 27.5875 12.0343 27.901 12.0343 28.2861z"/><path fill="#FFCA67" d="M29.6514,24.055v1.3532c0,0.3836-0.3138,0.6975-0.6975,0.6975h-2.8667
				c-0.3836,0-0.6975-0.3139-0.6975-0.6975V24.055c0-0.3836,0.3139-0.6975,0.6975-0.6975h2.8667
				C29.3376,23.3575,29.6514,23.6714,29.6514,24.055z"/><path fill="#E9715F" d="M29.6514,28.288v1.3532c0,0.3836-0.3138,0.6975-0.6975,0.6975h-2.8667
				c-0.3836,0-0.6975-0.3139-0.6975-0.6975V28.288c0-0.3836,0.3139-0.6975,0.6975-0.6975h2.8667
				C29.3376,27.5905,29.6514,27.9044,29.6514,28.288z"/><path fill="#83BD57" d="M29.8996,32.4422v5.7437c0,0.4283-0.3504,0.7787-0.7787,0.7787h-3.2005
				c-0.4282,0-0.7787-0.3504-0.7787-0.7787v-5.7437c0-0.4283,0.3505-0.7787,0.7787-0.7787h3.2005
				C29.5492,31.6635,29.8996,32.0139,29.8996,32.4422z"/><path fill="#C7C7C7" d="M29.6543,19.8262v1.3526c0,0.3763-0.3135,0.6987-0.6986,0.6987h-2.8665
				c-0.3852,0-0.6987-0.3225-0.6987-0.6987v-1.3526c0-0.3852,0.3135-0.6987,0.6987-0.6987h2.8665
				C29.3408,19.1275,29.6543,19.4409,29.6543,19.8262z"/></svg>