<svg xmlns="http://www.w3.org/2000/svg" viewBox="0 0 64 64"><rect width="24" height="37" x="37" y="16" fill="#787680" rx="2"/><rect width="30" height="19" x="3" y="30" fill="#ffb655" rx="2"/><rect width="30" height="3" x="3" y="34" fill="#2488ff"/><path fill="#00ddc2" d="M28.5,43a1.5,1.5,0,0,1,0,3h-4a1.5,1.5,0,0,1,0-3Z"/><polygon fill="#bdfdff" points="59 53 59 59 56 61 52 59 48 61 44 58 40 61 40 53 59 53"/><path fill="#bdfdff" d="M59,7v9H39V3H55A4,4,0,0,1,59,7Z"/><rect width="18" height="13" x="40" y="19" fill="#2488ff" rx="1"/><path fill="#00ddc2" d="M39,3V9H34V7a4,4,0,0,1,4-4Z"/><path d="M15.586 22.586a2 2 0 1 0 2.828 0A2 2 0 0 0 15.586 22.586zM21.242 19.757a6 6 0 0 0-8.484 0l1.414 1.414a4.1 4.1 0 0 1 5.656 0z"/><path d="M17 16a7.948 7.948 0 0 1 5.657 2.343l1.414-1.414a10 10 0 0 0-14.142 0l1.414 1.414A7.948 7.948 0 0 1 17 16zM60 15.18V7a5 5 0 0 0-5-5H38a5 5 0 0 0-5 5V9a1 1 0 0 0 1 1h4v5.18A3.01 3.01 0 0 0 36 18V51a3.009 3.009 0 0 0 3 3v7a.977.977 0 0 0 .55.89 1 1 0 0 0 1.05-.09L44 59.25l3.4 2.55a1.029 1.029 0 0 0 .6.2.908.908 0 0 0 .45-.11L52 60.12l3.55 1.77a.969.969 0 0 0 1-.06l3-2A1 1 0 0 0 60 59V53.82A3.01 3.01 0 0 0 62 51V18A3.01 3.01 0 0 0 60 15.18zM40 4H55a3.009 3.009 0 0 1 3 3v8H40zM35 8V7a3.009 3.009 0 0 1 3-3V8zM58 58.46l-2.07 1.39-3.48-1.74a.975.975 0 0 0-.9 0l-3.44 1.72L44.6 57.2a.99.99 0 0 0-1.2 0L41 59V54H58zM60 51a1 1 0 0 1-1 1H39a1 1 0 0 1-1-1V18a1 1 0 0 1 1-1H59a1 1 0 0 1 1 1z"/><path d="M57,18H41a2.006,2.006,0,0,0-2,2V31a2.006,2.006,0,0,0,2,2H57a2.006,2.006,0,0,0,2-2V20A2.006,2.006,0,0,0,57,18Zm0,13H41V20H57Z"/><circle cx="49" cy="37" r="2"/><circle cx="43" cy="37" r="2"/><circle cx="55" cy="37" r="2"/><circle cx="49" cy="42" r="2"/><circle cx="43" cy="42" r="2"/><circle cx="55" cy="42" r="2"/><circle cx="49" cy="47" r="2"/><circle cx="43" cy="47" r="2"/><circle cx="55" cy="47" r="2"/><rect width="4" height="2" x="43" y="22"/><rect width="3" height="2" x="49" y="22"/><rect width="12" height="2" x="43" y="27"/><rect width="3" height="2" x="42" y="6"/><rect width="9" height="2" x="47" y="6"/><rect width="5" height="2" x="42" y="10"/><rect width="2" height="2" x="49" y="10"/><rect width="3" height="2" x="53" y="10"/><path d="M31,29H5a3.009,3.009,0,0,0-3,3V47a3.009,3.009,0,0,0,3,3H31a3.009,3.009,0,0,0,3-3V32A3.009,3.009,0,0,0,31,29Zm1,18a1,1,0,0,1-1,1H5a1,1,0,0,1-1-1V38H32Zm0-11H4V35H32Zm0-3H4V32a1,1,0,0,1,1-1H31a1,1,0,0,1,1,1Z"/><path d="M28.5,42h-4a2.5,2.5,0,0,0,0,5h4a2.5,2.5,0,0,0,0-5Zm0,3h-4a.5.5,0,0,1,0-1h4a.5.5,0,0,1,0,1Z"/></svg>