<svg xmlns="http://www.w3.org/2000/svg" width="32" height="32" viewBox="0 0 32 32"><g font-family="sans-serif" font-size="45.121" font-weight="400" letter-spacing="0" transform="translate(0 -1020.362)" word-spacing="0"><path fill="#25b39e" stroke="#000" stroke-dashoffset="2" stroke-linecap="round" stroke-linejoin="round" style="isolation:auto;mix-blend-mode:normal" d="m 6.4825236,1027.8571 0,5 0.5136719,0 1.3417969,-2.3242 3.0683596,0.014 -0.01367,-0.1133 c 0.286631,-0.7632 1.021529,-1.2636 1.835938,-1.25 0.06461,6e-4 0.129142,0 0.193359,0.012 0.87972,0.1036 1.57583,0.7941 1.6875,1.6738 0.07151,0.5678 -0.112357,1.138 -0.501953,1.5567 l 0.251951,0.4316 16.623047,0 0,-5 -14.939453,0 z" color="#000" overflow="visible"/><path fill="#25b39e" stroke="#000" stroke-dashoffset="2" stroke-linecap="round" stroke-linejoin="round" style="isolation:auto;mix-blend-mode:normal" d="m 14.859477,1032.8571 1.269531,2.1797 -2.568359,4.4551 -3.8554692,6.6855 -2.2226562,-1.2851 0,4.9648 23.0000004,0 0,-17 -15.623047,0 z" color="#000" overflow="visible"/><path fill="#f8b84e" stroke="#000" stroke-dashoffset="2" stroke-linecap="round" stroke-linejoin="round" style="isolation:auto;mix-blend-mode:normal" d="M17.482525 1027.8571l3 0 0 21.9999-3 0zM21.157069 1023.8571a4.521091 4.5758314 0 0 1 2.325455 4l-4.521091 0z" color="#000" overflow="visible"/><path fill="#f8b84e" stroke="#000" stroke-dashoffset="2" stroke-linecap="round" stroke-linejoin="round" style="isolation:auto;mix-blend-mode:normal" d="m -16.807978,1023.8571 a 4.521091,4.5758314 0 0 1 2.325455,4 l -4.521091,0 z" color="#000" overflow="visible" transform="scale(-1 1)"/><path fill="none" stroke="#000" d="m 16.982524,1032.8571 4,0"/><path fill="#f8b84e" fill-rule="evenodd" d="m 0.01936604,1037.8806 2.35217106,2.3553 3.1184046,-5.4081 2.5692793,-4.4559 c 0.057539,-0.1004 0.1646902,-0.162 0.2801956,-0.1616 l 5.1810264,0.023 c 0.113755,5e-4 0.218718,0.061 0.276043,0.1596 l 0.69897,1.2007 -0.393033,-1.4447 -4.9988426,-1.3646 -3.6331321,3.6391 z" color="#000" overflow="visible" style="isolation:auto;mix-blend-mode:normal"/><path fill="#25b39e" style="isolation:auto;mix-blend-mode:normal" d="m -892.50796,526.49597 a 2.8946245,2.8927767 0 0 1 -2.89463,2.89278 2.8946245,2.8927767 0 0 1 -2.89462,-2.89278 2.8946245,2.8927767 0 0 1 2.89462,-2.89278 2.8946245,2.8927767 0 0 1 2.89463,2.89278 z" color="#000" overflow="visible" transform="rotate(-60.032) skewX(-.063)"/><path fill="none" stroke="#000" stroke-linecap="round" stroke-linejoin="round" d="m 8.3377164,1030.5324 5.1810266,0.023 2.610492,4.4811 -2.569396,4.456 -3.8546648,6.685 -3.8957591,-2.2521 -3.8957592,-2.2521 3.8546638,-6.685 z" color="#000" overflow="visible" style="isolation:auto;mix-blend-mode:normal"/><path fill="none" stroke="#000" stroke-linecap="round" stroke-linejoin="round" style="isolation:auto;mix-blend-mode:normal" d="m 527.45795,888.3291 a 0.9619745,0.96258891 0 0 1 -0.96198,0.96259 0.9619745,0.96258891 0 0 1 -0.96197,-0.96259 0.9619745,0.96258891 0 0 1 0.96197,-0.96259 0.9619745,0.96258891 0 0 1 0.96198,0.96259 z" color="#000" overflow="visible" transform="rotate(30.032) skewX(.063)"/><path fill="none" stroke="#000" stroke-linecap="round" stroke-linejoin="round" style="isolation:auto;mix-blend-mode:normal" d="m 525.68535,-887.82979 a 1.9284462,1.9290975 0 0 1 2.31362,0.54171 1.9284462,1.9290975 0 0 1 0.0317,2.37674 1.9284462,1.9290975 0 0 1 -2.29832,0.60337 1.9284462,1.9290975 0 0 1 -1.13906,-2.08605" color="#000" overflow="visible" transform="matrix(.86575 .50048 .49952 -.8663 0 0)"/><path fill="none" stroke="#000" d="m 14.000713,1029.7196 0.803292,-1.3931"/><path fill="none" stroke="#000" stroke-linecap="round" stroke-linejoin="round" style="isolation:auto;mix-blend-mode:normal" d="m 528.4245,-880.92944 a 1.928517,1.9297489 0 0 1 -1.36367,-0.56521 1.928517,1.9297489 0 0 1 -0.56485,-1.36454" color="#000" overflow="visible" transform="matrix(.86575 .50048 .49952 -.8663 0 0)"/><path style="line-height:125%;-inkscape-font-specification:'Bebas Neue Bold'" d="M6.0961481 1041.669c-.201283-.1164-.2266324-.2492-.1452894-.3903.081348-.1411.2089832-.1855.4102402-.069l1.5216565.8797c.201283.1163.2266375.2492.1452894.3903-.081343.1411-.2089831.1855-.4102401.069l-1.5216566-.8797zm1.2378201 1.3067c.4508679.2607.8456242.1718 1.0966339-.2635.2510097-.4353.1305032-.8221-.3203647-1.0827l-1.4653057-.8471c-.4508593-.2606-.8456206-.1717-1.0966302.2636-.2510097.4353-.1304982.822.320361 1.0827l1.4653057.847zM6.7929956 1039.8927l.4206713-.7296-.4025573-.2327-.676328 1.1729 2.8178922 1.629.2556567-.4434-1.1633855-.6725.3300292-.5724-.4025573-.2327-.3300292.5724-.8493921-.491zM7.5919253 1038.5071l.4206713-.7295-.4025573-.2328-.676328 1.173 2.8178922 1.629.2556565-.4434-1.1633853-.6726.3300292-.5723-.4025573-.2327-.3300292.5723-.8493921-.491zM8.390855 1037.1216l.4415929-.7659-.4025572-.2327-.6972497 1.2092 2.817892 1.629.69725-1.2092-.402557-.2327-.441593.7658-.8252371-.477.3509508-.6087-.4025573-.2327-.3509508.6086-.7849836-.4537zM12.1988 1036.1027c-.130245-.016-.233189-.07-.370055-.1495l-.434762-.2513c-.293862-.1699-.549042-.2207-.769468-.053.02129-.251-.114451-.4531-.40429-.6207l-.2214047-.128c-.4347615-.2513-.7620001-.1771-1.0269558.2824l-.3858086.6691 2.8178921 1.629.255657-.4434-1.147288-.6632.08832-.1532c.116205-.2015.26395-.2344.525617-.083l.442811.256c.229454.1326.283034.1421.369433.1598l.260308-.4514zm-2.8313588-.6748c.090642-.1572.2187157-.1745.41999-.058l.2777648.1606c.22543.1303.239784.273.14449.4382l-.09994.1734-.8654901-.5004.1231813-.2136z" font-family="Bebas Neue" font-size="4.651" font-weight="700"/><path fill="none" stroke="#000" stroke-linecap="round" stroke-linejoin="round" style="isolation:auto;mix-blend-mode:normal" d="m 8.3377164,1030.5324 5.1810266,0.023 2.610492,4.4811 -2.569396,4.456 -3.8546648,6.685 -3.8957591,-2.2521 -3.8957592,-2.2521 3.8546638,-6.685 z" color="#000" overflow="visible"/><path fill="none" stroke="#000" stroke-linecap="round" stroke-linejoin="round" style="isolation:auto;mix-blend-mode:normal" d="m 525.68535,-887.82979 a 1.9284462,1.9290975 0 0 1 2.31362,0.54171 1.9284462,1.9290975 0 0 1 0.0317,2.37674 1.9284462,1.9290975 0 0 1 -2.29832,0.60337 1.9284462,1.9290975 0 0 1 -1.13906,-2.08605" color="#000" overflow="visible" transform="matrix(.86575 .50048 .49952 -.8663 0 0)"/><path fill="none" stroke="#000" d="m 14.000713,1029.7196 0.803292,-1.3931"/></g></svg>