<svg width="40" height="40" viewBox="0 0 40 40" fill="none" xmlns="http://www.w3.org/2000/svg">
<circle cx="20" cy="20" r="20" fill="#FC471E"/>
<path d="M33.3402 20.0002C33.3196 19.4373 33.1366 18.8923 32.8133 18.431C32.4899 17.9697 32.0401 17.6117 31.5179 17.4003C30.9957 17.1889 30.4236 17.1331 29.8704 17.2395C29.3172 17.346 28.8066 17.6102 28.4002 18.0002C26.125 16.4537 23.4506 15.5992 20.7002 15.5402L22.0002 9.30024L26.2802 10.2002C26.3311 10.6732 26.5488 11.1125 26.8945 11.4394C27.2401 11.7663 27.6909 11.9592 28.1659 11.9837C28.641 12.0081 29.1092 11.8624 29.4866 11.5728C29.8639 11.2831 30.1256 10.8684 30.2248 10.4032C30.3239 9.93794 30.254 9.45259 30.0275 9.03425C29.8011 8.61591 29.433 8.29199 28.9892 8.12061C28.5455 7.94924 28.0552 7.94165 27.6063 8.0992C27.1575 8.25674 26.7795 8.56912 26.5402 8.98024L21.6402 8.00024C21.56 7.98266 21.4772 7.98116 21.3965 7.99583C21.3158 8.01049 21.2387 8.04104 21.1699 8.08568C21.1011 8.13033 21.0418 8.1882 20.9955 8.25593C20.9492 8.32365 20.9168 8.3999 20.9002 8.48024L19.4202 15.4202C16.6359 15.4622 13.9247 16.3173 11.6202 17.8802C11.3119 17.5901 10.9441 17.3706 10.5425 17.2367C10.1409 17.1028 9.71498 17.0579 9.29428 17.105C8.87357 17.1521 8.46813 17.2902 8.10607 17.5095C7.74401 17.7289 7.43397 18.0244 7.19745 18.3755C6.96094 18.7266 6.80359 19.1249 6.73632 19.5429C6.66905 19.9608 6.69347 20.3884 6.80787 20.796C6.92228 21.2036 7.12394 21.5814 7.39889 21.9033C7.67384 22.2252 8.01549 22.4835 8.40017 22.6602C8.37765 22.9531 8.37765 23.2473 8.40017 23.5402C8.40017 28.0202 13.6202 31.6602 20.0602 31.6602C26.5002 31.6602 31.7202 28.0202 31.7202 23.5402C31.7427 23.2473 31.7427 22.9531 31.7202 22.6602C32.2137 22.4149 32.6277 22.035 32.9144 21.5643C33.2011 21.0935 33.3487 20.5513 33.3402 20.0002ZM13.3402 22.0002C13.3402 21.4698 13.5509 20.9611 13.926 20.586C14.301 20.211 14.8097 20.0002 15.3402 20.0002C15.8706 20.0002 16.3793 20.211 16.7544 20.586C17.1295 20.9611 17.3402 21.4698 17.3402 22.0002C17.3402 22.5307 17.1295 23.0394 16.7544 23.4145C16.3793 23.7895 15.8706 24.0002 15.3402 24.0002C14.8097 24.0002 14.301 23.7895 13.926 23.4145C13.5509 23.0394 13.3402 22.5307 13.3402 22.0002ZM24.9602 27.5002C23.5412 28.5695 21.7954 29.1138 20.0202 29.0402C18.2449 29.1138 16.4991 28.5695 15.0802 27.5002C14.9951 27.3966 14.9517 27.2651 14.9582 27.1312C14.9648 26.9973 15.021 26.8706 15.1157 26.7758C15.2105 26.681 15.3372 26.6249 15.4711 26.6183C15.605 26.6117 15.7365 26.6552 15.8402 26.7402C17.0426 27.6222 18.5104 28.0668 20.0002 28.0002C21.4918 28.0814 22.9664 27.651 24.1802 26.7802C24.2313 26.7229 24.2937 26.6768 24.3635 26.6446C24.4332 26.6125 24.5088 26.595 24.5856 26.5933C24.6624 26.5917 24.7387 26.6058 24.8098 26.6348C24.8809 26.6639 24.9452 26.7073 24.9989 26.7623C25.0525 26.8173 25.0942 26.8827 25.1215 26.9545C25.1487 27.0263 25.1609 27.1029 25.1573 27.1797C25.1536 27.2564 25.1343 27.3315 25.1004 27.4004C25.0665 27.4694 25.0187 27.5306 24.9602 27.5802V27.5002ZM24.6002 24.0802C24.2046 24.0802 23.8179 23.9629 23.489 23.7432C23.1601 23.5234 22.9038 23.2111 22.7524 22.8456C22.601 22.4802 22.5614 22.078 22.6386 21.6901C22.7158 21.3021 22.9063 20.9457 23.186 20.666C23.4657 20.3863 23.822 20.1958 24.21 20.1187C24.598 20.0415 25.0001 20.0811 25.3655 20.2325C25.731 20.3839 26.0433 20.6402 26.2631 20.9691C26.4829 21.298 26.6002 21.6847 26.6002 22.0802C26.611 22.3512 26.5667 22.6216 26.4698 22.8749C26.3729 23.1282 26.2255 23.3592 26.0365 23.5537C25.8476 23.7483 25.621 23.9024 25.3707 24.0066C25.1203 24.1109 24.8514 24.1632 24.5802 24.1602L24.6002 24.0802Z" fill="white"/>
</svg>
