<svg width="40" height="40" viewBox="0 0 40 40" fill="none" xmlns="http://www.w3.org/2000/svg">
<circle cx="20" cy="20" r="20" fill="url(#paint0_linear)"/>
<path d="M15.4163 30.6252C14.6064 30.6252 14.744 30.3194 14.4647 29.5482L12.083 21.7097L30.4163 10.8335" fill="#C8DAEA"/>
<path d="M15.417 30.625C16.042 30.625 16.3181 30.3392 16.667 30L20.0003 26.7588L15.8424 24.2515" fill="#A9C9DD"/>
<path d="M15.8417 24.252L25.9167 31.6955C27.0663 32.3299 27.8961 32.0014 28.1825 30.6281L32.2835 11.3025C32.7034 9.61911 31.6418 8.85561 30.542 9.35494L6.46075 18.6406C4.81698 19.2999 4.82656 20.2169 6.16112 20.6256L12.3409 22.5544L26.6478 13.5283C27.3232 13.1188 27.9431 13.339 27.4343 13.7905" fill="url(#paint1_linear)"/>
<defs>
<linearGradient id="paint0_linear" x1="26.668" y1="6.668" x2="16.668" y2="30" gradientUnits="userSpaceOnUse">
<stop stop-color="#37AEE2"/>
<stop offset="1" stop-color="#1E96C8"/>
</linearGradient>
<linearGradient id="paint1_linear" x1="23.126" y1="19.1663" x2="27.0383" y2="28.069" gradientUnits="userSpaceOnUse">
<stop stop-color="#EFF7FC"/>
<stop offset="1" stop-color="white"/>
</linearGradient>
</defs>
</svg>
