<svg width="41" height="40" viewBox="0 0 41 40" fill="none" xmlns="http://www.w3.org/2000/svg">
<circle cx="20.1943" cy="20" r="20" fill="#1EA1F2"/>
<path fill-rule="evenodd" clip-rule="evenodd" d="M31.6418 15.9044C31.6519 16.1517 31.6552 16.399 31.6552 16.6464C31.6552 24.1464 26.1097 32.8047 15.9688 32.8047C12.8537 32.8047 9.95713 31.8601 7.5166 30.2522C7.94801 30.2972 8.38614 30.331 8.831 30.331C11.4138 30.331 13.7927 29.42 15.6797 27.8908C13.2672 27.857 11.2301 26.2041 10.5275 23.9552C10.8648 24.0227 11.2121 24.0565 11.5673 24.0565C12.0682 24.0565 12.5545 23.9891 13.0207 23.8542C10.4961 23.337 8.59457 21.0432 8.59457 18.2883C8.59457 18.2546 8.59457 18.2433 8.59457 18.2208C9.3386 18.6368 10.1902 18.8953 11.0945 18.929C9.61312 17.9058 8.63936 16.163 8.63936 14.1952C8.63936 13.1607 8.91053 12.1824 9.38788 11.3391C12.1063 14.7799 16.1705 17.04 20.7524 17.2761C20.6583 16.8601 20.6101 16.4217 20.6101 15.9831C20.6101 12.846 23.0786 10.3047 26.1242 10.3047C27.7098 10.3047 29.1419 10.9907 30.147 12.0926C31.4053 11.8453 32.5842 11.373 33.6509 10.7209C33.2374 12.0477 32.3645 13.1607 31.2238 13.8578C32.3399 13.7229 33.4044 13.4195 34.3916 12.9697C33.6509 14.1054 32.7186 15.106 31.6418 15.9044Z" fill="white"/>
</svg>
